<?xml version="1.0" standalone="no"?>
<!DOCTYPE svg PUBLIC "-//W3C//DTD SVG 20010904//EN"
 "http://www.w3.org/TR/2001/REC-SVG-20010904/DTD/svg10.dtd">
<svg version="1.0" xmlns="http://www.w3.org/2000/svg"
 width="2362.000000pt" height="2362.000000pt" viewBox="0 0 2362.000000 2362.000000"
 preserveAspectRatio="xMidYMid meet">

<g transform="translate(0.000000,2362.000000) scale(0.100000,-0.100000)"
fill="#000000" stroke="none">
<path d="M5460 15398 c-106 -9 -257 -32 -370 -54 -168 -34 -446 -113 -527
-150 -17 -8 -34 -14 -38 -14 -4 0 -23 -7 -43 -16 -21 -9 -46 -20 -57 -25 -461
-197 -830 -449 -1165 -796 -143 -146 -211 -228 -366 -438 -110 -150 -307 -510
-381 -700 -182 -460 -263 -882 -263 -1360 0 -478 81 -900 263 -1360 74 -190
271 -550 381 -700 155 -210 223 -292 366 -438 335 -347 704 -599 1165 -796 11
-5 36 -16 57 -25 20 -9 39 -16 43 -16 4 0 21 -6 38 -14 50 -23 174 -62 314
-99 593 -158 1213 -158 1806 0 140 37 264 76 314 99 17 8 34 14 38 14 4 0 23
7 43 16 21 9 46 20 57 25 461 197 830 449 1165 796 143 146 211 228 366 438
110 150 307 510 381 700 182 460 263 882 263 1360 0 478 -81 900 -263 1360
-74 190 -271 550 -381 700 -155 210 -223 292 -366 438 -335 347 -704 599
-1165 796 -11 5 -36 16 -57 25 -20 9 -39 16 -43 16 -4 0 -21 6 -38 14 -125 56
-426 134 -677 175 -241 40 -610 52 -860 29z m-901 -1129 c107 -54 165 -165
142 -277 -14 -69 -51 -133 -97 -169 l-36 -27 4 -110 c3 -94 8 -120 30 -167 47
-101 146 -179 228 -179 l40 0 0 -600 0 -600 278 0 279 0 6 308 c4 169 7 415 7
547 0 424 40 735 132 1025 25 80 93 256 105 269 7 9 17 -12 60 -136 179 -514
318 -1195 384 -1885 l12 -128 428 0 429 0 0 93 0 92 -61 19 c-234 73 -432 338
-505 676 -22 103 -30 327 -15 431 55 386 259 684 531 775 82 27 225 25 312 -4
240 -83 431 -337 504 -674 22 -103 30 -327 14 -441 -34 -253 -143 -483 -294
-625 -73 -68 -167 -124 -238 -143 l-48 -13 0 -93 0 -93 385 0 385 0 0 -30 0
-30 -2180 0 -2180 0 0 30 0 30 215 0 215 0 0 600 0 600 43 0 c79 0 175 80 224
185 25 53 28 71 28 165 l0 105 -52 52 c-40 40 -56 65 -69 109 -31 108 -3 209
77 278 85 72 179 84 278 35z m-639 -2431 c43 -22 90 -76 90 -104 0 -29 -38
-13 -64 26 -49 74 -156 78 -210 7 -45 -59 -54 -161 -20 -228 51 -102 186 -106
232 -7 12 27 23 38 40 38 20 0 22 -4 17 -22 -24 -79 -90 -128 -170 -128 -116
0 -185 82 -185 222 0 97 38 164 115 199 54 25 101 24 155 -3z m2325 8 c35 -15
75 -67 75 -98 0 -27 -39 -23 -49 5 -20 52 -78 76 -136 57 -24 -8 -40 -21 -46
-38 -16 -42 15 -72 107 -105 103 -37 134 -66 134 -127 0 -54 -20 -87 -66 -106
-43 -18 -118 -18 -153 1 -65 33 -109 125 -61 125 13 0 25 -11 34 -34 18 -43
51 -66 98 -66 51 0 84 17 98 51 23 55 -1 78 -135 125 -70 25 -105 62 -105 112
0 25 8 49 21 66 34 43 121 58 184 32z m525 -8 c43 -22 90 -76 90 -104 0 -29
-38 -13 -64 26 -49 74 -156 78 -210 7 -45 -59 -55 -160 -21 -227 33 -65 105
-95 166 -70 37 16 89 83 89 117 0 22 -3 23 -66 23 -57 0 -65 2 -62 18 3 14 17
17 91 20 l87 3 0 -111 c0 -87 -3 -110 -14 -110 -16 0 -26 21 -26 53 0 19 -2
19 -32 -10 -44 -41 -70 -53 -112 -53 -145 0 -233 175 -162 325 26 57 47 78 96
99 50 22 99 19 150 -6z m-2501 -15 c15 -38 141 -386 141 -390 0 -2 -11 -3 -24
-3 -21 0 -27 9 -46 65 l-22 65 -88 0 -88 0 -24 -62 c-18 -48 -29 -64 -46 -66
-12 -2 -22 1 -22 6 0 5 32 95 70 198 39 104 72 195 75 202 2 6 17 12 33 12 23
0 32 -6 41 -27z m221 -81 l5 -102 105 105 c71 72 112 105 127 105 13 0 23 -3
23 -7 0 -4 -35 -42 -77 -85 l-77 -78 20 -27 c11 -16 51 -72 88 -125 l67 -98
-29 0 c-26 0 -37 12 -104 110 l-75 109 -36 -37 c-36 -36 -37 -40 -37 -110 0
-70 -1 -72 -25 -72 l-25 0 0 203 c0 112 3 207 7 211 4 4 14 5 23 4 12 -3 16
-24 20 -106z m600 83 l0 -25 -115 0 -115 0 0 -65 0 -64 108 -3 c99 -3 107 -4
107 -23 0 -19 -8 -20 -107 -23 l-108 -3 0 -74 0 -75 120 0 c113 0 120 -1 120
-20 0 -19 -7 -20 -145 -20 l-145 0 0 203 c0 112 3 207 7 210 3 4 66 7 140 7
l133 0 0 -25z m425 6 c51 -24 81 -56 100 -110 29 -82 15 -168 -38 -228 -45
-51 -81 -63 -192 -63 l-95 0 0 203 c0 112 3 207 7 210 3 4 45 7 92 7 62 0 97
-6 126 -19z m455 -6 l0 -25 -115 0 -115 0 0 -65 0 -64 108 -3 c99 -3 107 -4
107 -23 0 -19 -8 -20 -107 -23 l-108 -3 0 -74 0 -75 120 0 c113 0 120 -1 120
-20 0 -19 -7 -20 -145 -20 l-145 0 0 203 c0 112 3 207 7 210 3 4 66 7 140 7
l133 0 0 -25z m468 -188 l2 -207 -25 0 -25 0 0 203 c0 112 3 207 7 211 4 4 14
5 23 4 13 -3 15 -33 18 -211z m657 36 l105 -177 2 175 c3 172 3 174 26 177
l22 3 0 -211 0 -211 -32 3 c-31 3 -39 13 -133 173 l-100 169 -3 -172 -2 -172
-25 0 -25 0 0 203 c0 112 3 207 7 210 3 4 17 7 29 7 20 0 41 -29 129 -177z
m495 152 l0 -25 -115 0 -115 0 0 -65 0 -64 108 -3 c99 -3 107 -4 107 -23 0
-19 -8 -20 -107 -23 l-108 -3 0 -74 0 -75 120 0 c113 0 120 -1 120 -20 0 -19
-7 -20 -145 -20 l-145 0 0 203 c0 112 3 207 7 210 3 4 66 7 140 7 l133 0 0
-25z m284 11 c75 -31 98 -111 51 -180 -13 -20 -20 -36 -15 -36 18 0 34 -46 40
-118 l6 -73 -26 3 c-23 3 -25 7 -28 58 -3 80 -9 95 -37 108 -14 7 -57 12 -95
12 l-70 0 0 -90 c0 -89 0 -90 -25 -90 l-25 0 0 203 c0 112 3 207 7 210 12 13
183 7 217 -7z m86 -636 l0 -30 -385 0 -385 0 0 -847 c0 -662 -3 -853 -13 -873
-7 -14 -29 -34 -50 -45 l-37 -20 -37 20 c-21 11 -43 31 -50 45 -10 20 -13 211
-13 873 l0 847 -412 -2 -413 -3 -3 -72 -3 -73 -128 0 -129 0 14 -47 c8 -25 14
-67 14 -92 0 -44 -3 -49 -69 -111 -38 -36 -74 -76 -81 -88 -6 -13 -14 -56 -17
-95 -5 -76 7 -163 51 -372 51 -238 25 -489 -61 -587 -13 -14 -10 -21 21 -63
39 -51 44 -79 20 -113 -31 -44 -85 -62 -189 -62 -102 0 -147 12 -179 48 -21
24 -22 76 -10 1145 l7 587 -276 0 -277 0 -2 -402 -3 -403 -50 -5 c-87 -9 -165
-74 -214 -180 -21 -46 -26 -73 -29 -163 l-4 -108 44 -39 c84 -73 115 -206 75
-312 -41 -106 -185 -185 -287 -158 -138 36 -219 146 -207 280 7 77 36 140 91
194 l46 44 0 74 c0 149 -54 266 -152 333 -42 28 -62 35 -100 35 l-48 0 -2 403
-3 402 -212 3 -213 2 0 30 0 30 2180 0 2180 0 0 -30z"/>
<path d="M7066 14133 c-19 -61 -42 -188 -58 -328 -18 -151 -17 -878 0 -1040
22 -202 61 -385 82 -385 27 0 71 235 90 484 15 197 12 694 -5 896 -21 232 -59
420 -86 420 -4 0 -14 -21 -23 -47z"/>
<path d="M6976 14120 c-69 -83 -131 -248 -168 -446 -19 -103 -22 -155 -22
-389 0 -234 3 -285 22 -385 28 -154 65 -276 106 -358 36 -70 101 -154 92 -117
-83 319 -101 1077 -35 1527 10 76 24 150 29 164 15 38 6 39 -24 4z"/>
<path d="M7186 14093 c80 -340 85 -1209 9 -1576 -9 -43 -19 -86 -22 -95 -16
-44 50 38 86 107 90 175 131 377 138 691 6 249 -9 405 -56 594 -33 131 -94
267 -139 309 l-30 29 14 -59z"/>
<path d="M6840 14053 c-162 -184 -255 -571 -221 -920 26 -266 107 -493 226
-631 43 -50 55 -50 25 0 -60 102 -120 342 -139 558 -33 356 16 738 124 968 19
39 32 72 30 72 -2 0 -22 -21 -45 -47z"/>
<path d="M7320 14044 c186 -386 186 -1144 -2 -1529 l-29 -60 42 45 c171 186
267 581 229 945 -25 252 -113 493 -220 606 l-50 54 30 -61z"/>
<path d="M6714 14008 c-120 -124 -200 -295 -240 -513 -22 -124 -15 -384 15
-502 46 -184 140 -362 242 -458 l42 -40 -22 35 c-109 172 -170 373 -190 623
-12 140 -1 327 25 457 26 126 84 287 135 371 26 43 46 79 45 79 -1 0 -25 -24
-52 -52z"/>
<path d="M7442 14012 c72 -104 142 -310 169 -493 17 -118 15 -383 -4 -499 -30
-180 -93 -354 -177 -490 -16 -25 -4 -17 42 31 76 80 137 184 183 312 47 131
66 254 66 417 0 273 -78 509 -227 692 -65 78 -99 99 -52 30z"/>
<path d="M4191 11701 c-17 -49 -31 -92 -31 -96 0 -3 32 -5 71 -5 64 0 70 2 64
18 -4 9 -18 48 -31 87 -13 38 -28 73 -33 78 -4 4 -22 -32 -40 -82z"/>
<path d="M5340 11635 l0 -165 60 0 c117 0 171 47 178 156 8 121 -42 174 -165
174 l-73 0 0 -165z"/>
<path d="M7700 11725 l0 -75 78 0 c95 0 122 18 122 79 0 58 -21 71 -118 71
l-82 0 0 -75z"/>
<path d="M5515 10867 c-18 -27 -12 -53 17 -68 27 -15 57 -2 64 28 14 55 -50
87 -81 40z"/>
<path d="M5516 10524 c-9 -8 -16 -23 -16 -33 0 -21 30 -51 52 -51 19 0 48 32
48 53 0 21 -27 47 -50 47 -10 0 -26 -7 -34 -16z"/>
<path d="M5512 10178 c-7 -7 -12 -24 -12 -40 0 -50 66 -62 91 -17 23 43 -44
92 -79 57z"/>
<path d="M7065 9524 c-19 -20 -16 -43 8 -58 37 -23 77 35 41 61 -23 17 -29 16
-49 -3z"/>
<path d="M16347 13580 c-267 -24 -503 -95 -600 -179 -83 -73 -118 -213 -84
-332 16 -52 68 -129 88 -129 5 0 1 17 -10 38 -35 69 -53 137 -53 203 0 182
132 273 483 334 297 52 707 31 1007 -51 301 -81 479 -177 629 -338 184 -198
214 -463 76 -665 -125 -180 -499 -351 -856 -391 -81 -9 -101 -8 -138 6 -67 25
-100 29 -110 13 -29 -46 6 -155 127 -400 120 -240 196 -355 269 -403 60 -41
124 -66 164 -66 36 0 93 17 116 35 18 13 13 14 -55 8 -64 -5 -82 -2 -115 15
-51 26 -122 100 -170 175 -78 124 -201 437 -207 527 l-3 45 84 8 c259 23 595
134 792 262 252 162 346 416 247 662 -122 301 -513 521 -1076 603 -162 23
-457 33 -605 20z"/>
<path d="M12789 13464 c-21 -25 -58 -40 -154 -63 -301 -69 -373 -88 -488 -127
-463 -159 -781 -456 -851 -796 -20 -96 -20 -231 -1 -321 17 -79 58 -177 76
-177 7 0 8 7 4 18 -40 92 -47 129 -42 227 6 114 30 203 87 316 195 388 578
678 1002 758 147 27 258 36 258 20 0 -27 -132 -304 -378 -791 l-255 -506 -66
-22 c-328 -107 -746 -314 -1081 -535 -366 -243 -651 -521 -747 -732 -39 -85
-43 -192 -11 -253 36 -66 115 -105 212 -104 129 2 356 77 537 179 394 222 713
579 1129 1265 105 173 107 175 153 189 49 15 61 35 27 44 -11 3 -20 12 -20 21
0 9 70 147 156 308 145 274 483 947 518 1030 13 34 13 39 0 53 -20 19 -48 19
-65 -1z m-775 -1506 c-124 -209 -389 -610 -495 -749 -138 -181 -319 -364 -490
-494 -278 -210 -633 -340 -773 -281 -53 22 -76 60 -76 125 1 123 91 261 320
491 174 174 312 285 540 435 289 190 553 325 860 441 134 50 123 47 114 32z"/>
<path d="M17157 13034 c-3 -3 -2 -17 3 -30 10 -27 30 5 -230 -369 -390 -560
-608 -920 -626 -1033 -5 -34 -3 -42 15 -52 12 -6 34 -10 48 -8 24 3 28 9 39
64 33 166 147 363 594 1034 119 179 220 330 224 337 16 28 -44 80 -67 57z"/>
<path d="M18905 12651 c-55 -34 -125 -117 -125 -150 0 -25 5 -31 35 -41 41
-13 62 -5 118 49 72 68 86 121 37 146 -35 18 -29 19 -65 -4z"/>
<path d="M20754 12545 c-120 -18 -244 -61 -390 -135 -174 -88 -293 -168 -385
-259 -63 -62 -80 -86 -94 -132 -16 -52 -16 -59 -1 -111 10 -36 38 -86 77 -138
33 -45 59 -83 57 -85 -2 -1 -43 -31 -93 -65 -129 -91 -253 -190 -260 -208 -3
-8 -2 -19 2 -23 13 -13 255 7 308 26 93 31 213 94 239 126 34 39 33 70 -3 134
l-29 51 126 66 c157 81 245 120 387 170 138 48 115 49 -47 3 -146 -43 -267
-90 -402 -157 l-99 -49 -39 38 c-49 48 -108 163 -108 212 0 82 91 186 264 303
214 143 349 183 482 143 27 -8 61 -15 75 -15 38 0 109 54 109 84 0 40 -33 44
-176 21z m-659 -942 c31 -46 32 -67 2 -97 -30 -30 -170 -84 -240 -92 -73 -9
-81 7 -31 57 46 45 214 168 231 169 7 0 24 -17 38 -37z"/>
<path d="M13935 12528 c-66 -36 -95 -70 -115 -136 -16 -55 -44 -100 -153 -249
-276 -379 -407 -534 -476 -563 -32 -13 -35 -12 -53 10 -15 18 -18 32 -13 64
16 97 113 305 248 530 64 106 71 129 41 140 -28 11 -50 -12 -138 -144 -159
-238 -276 -477 -292 -594 -6 -42 -5 -45 24 -60 41 -21 76 -20 139 3 70 26 90
41 224 178 136 137 257 280 382 448 49 66 91 122 93 124 1 2 23 -6 47 -18 73
-35 116 -20 67 24 -29 27 -25 70 15 143 29 51 33 67 24 79 -21 25 -43 32 -64
21z"/>
<path d="M14715 12419 c-36 -23 -59 -23 -149 -5 -110 24 -197 -1 -350 -99
-145 -92 -357 -290 -464 -430 -145 -191 -177 -390 -64 -387 84 2 523 345 742
579 43 46 80 80 83 76 3 -4 -15 -42 -40 -83 -163 -271 -331 -734 -350 -961
-12 -155 16 -212 131 -271 84 -43 200 -50 296 -18 154 51 397 231 558 413 95
107 174 215 170 234 -2 10 -20 -5 -53 -48 -181 -232 -513 -494 -700 -551 -97
-30 -225 -31 -280 -2 -81 42 -105 117 -81 246 30 158 120 423 215 639 53 120
103 205 273 468 65 101 118 191 116 199 -4 22 -19 23 -53 1z m-216 -95 c17
-14 31 -34 31 -43 0 -42 -347 -408 -512 -541 -134 -108 -182 -136 -214 -122
-21 10 -24 18 -24 62 0 57 16 95 94 215 118 181 298 365 418 427 74 39 163 39
207 2z"/>
<path d="M19915 12419 c-36 -23 -59 -23 -149 -5 -110 24 -197 -1 -350 -99
-145 -92 -357 -290 -464 -430 -145 -191 -177 -390 -64 -387 84 2 523 345 742
579 43 46 80 80 83 76 3 -4 -15 -42 -40 -83 -75 -125 -179 -348 -225 -482
l-43 -128 -90 0 c-164 0 -559 -37 -703 -66 l-31 -6 118 353 c65 195 126 369
135 387 35 68 -4 103 -73 67 -40 -20 -62 -54 -67 -107 -10 -89 -129 -505 -186
-652 l-24 -60 -213 -48 c-624 -139 -1250 -351 -1726 -583 -453 -221 -763 -488
-844 -727 -125 -367 194 -795 693 -931 114 -31 342 -31 468 1 256 63 483 205
718 448 193 199 356 433 540 774 132 244 281 585 416 955 l29 79 60 12 c108
22 366 45 567 51 l196 6 -29 -114 c-33 -127 -45 -242 -35 -313 9 -61 51 -108
130 -148 84 -43 200 -50 296 -18 154 51 397 231 558 413 95 107 174 215 170
234 -2 10 -20 -5 -53 -48 -81 -105 -263 -281 -374 -363 -215 -159 -329 -209
-481 -210 -98 -1 -150 19 -186 72 -45 66 -40 142 24 366 l36 128 69 -6 c38 -3
82 -13 98 -21 39 -20 62 -68 54 -108 -12 -54 -64 -143 -122 -207 -31 -33 -53
-64 -49 -67 10 -11 150 112 184 161 38 57 42 107 12 165 -34 68 -90 105 -192
126 -16 3 -28 11 -28 17 0 17 108 284 143 353 40 79 96 172 239 394 65 101
118 191 116 199 -4 22 -19 23 -53 1z m-216 -95 c17 -14 31 -34 31 -43 0 -42
-347 -408 -512 -541 -134 -108 -182 -136 -214 -122 -21 10 -24 18 -24 62 0 57
16 95 94 215 118 181 298 365 418 427 74 39 163 39 207 2z m-1234 -1016 c-26
-85 -169 -447 -231 -586 -411 -914 -876 -1454 -1371 -1588 -103 -29 -377 -26
-488 4 -281 77 -521 277 -604 505 -22 60 -26 88 -25 172 0 85 4 110 26 162 87
206 315 432 626 620 454 273 1082 505 1872 692 201 48 203 48 195 19z"/>
<path d="M12702 12355 c-18 -8 -45 -24 -59 -35 -19 -15 -42 -20 -92 -21 -86
-1 -115 -10 -119 -35 -2 -15 9 -29 38 -48 37 -24 40 -29 28 -46 -7 -10 -46
-61 -87 -115 -140 -184 -237 -366 -256 -483 -13 -79 30 -132 108 -132 85 0
271 86 411 189 278 208 449 423 449 566 0 64 5 69 85 80 28 4 50 10 47 14 -2
4 -85 11 -184 15 -172 6 -183 8 -243 36 -71 34 -80 35 -126 15z m296 -128 c28
-16 32 -22 32 -60 0 -82 -76 -211 -199 -340 -205 -215 -426 -357 -555 -357
-78 0 -78 38 -2 196 68 140 139 251 238 369 116 138 157 173 224 196 74 24
211 22 262 -4z"/>
<path d="M18132 12355 c-18 -8 -45 -24 -59 -35 -19 -15 -42 -20 -92 -21 -86
-1 -115 -10 -119 -35 -2 -15 9 -29 38 -48 37 -24 40 -29 28 -46 -7 -10 -46
-61 -87 -115 -140 -184 -237 -366 -256 -483 -13 -79 30 -132 108 -132 85 0
271 86 411 189 278 208 449 423 449 566 0 64 5 69 85 80 28 4 50 10 47 14 -2
4 -85 11 -184 15 -172 6 -183 8 -243 36 -71 34 -80 35 -126 15z m296 -128 c28
-16 32 -22 32 -60 0 -82 -76 -211 -199 -340 -205 -215 -426 -357 -555 -357
-78 0 -78 38 -2 196 68 140 139 251 238 369 116 138 157 173 224 196 74 24
211 22 262 -4z"/>
</g>
</svg>
